<?xml version="1.0" encoding="iso-8859-1"?>
<!-- Generator: Adobe Illustrator 16.0.0, SVG Export Plug-In . SVG Version: 6.00 Build 0)  -->
<!DOCTYPE svg PUBLIC "-//W3C//DTD SVG 1.1//EN" "http://www.w3.org/Graphics/SVG/1.1/DTD/svg11.dtd">
<svg version="1.1" id="Layer_1" xmlns="http://www.w3.org/2000/svg" xmlns:xlink="http://www.w3.org/1999/xlink" x="0px" y="0px"
	 width="32px" height="32px" viewBox="0 0 32 32" style="enable-background:new 0 0 32 32;" xml:space="preserve">
<g id="Base_19_">
	<g>
		<path style="fill:#CCCCCC;" d="M30,0H2C0.896,0,0,0.895,0,1.999V30c0,1.104,0.896,2,2,2h28c1.104,0,2-0.896,2-2V1.999
			C32,0.895,31.104,0,30,0z"/>
	</g>
</g>
<g id="Container_19_">
	<g>
		<path style="fill:#FFFFFF;" d="M29,2H3C2.447,2,2,2.447,2,3v26c0,0.553,0.447,1,1,1h26c0.552,0,1-0.447,1-1V3
			C30,2.447,29.552,2,29,2z"/>
	</g>
</g>
<g id="Text_1_">
	<g>
		<path style="fill-rule:evenodd;clip-rule:evenodd;fill:#CCCCCC;" d="M25,21.999H7c-0.553,0-1,0.448-1,1c0,0.553,0.447,1,1,1h18
			c0.552,0,1-0.447,1-1C26,22.447,25.552,21.999,25,21.999z M7,19.999h14c0.553,0,1-0.447,1-1c0-0.552-0.447-1-1-1H7
			c-0.553,0-1,0.448-1,1C6,19.552,6.447,19.999,7,19.999z M25,14H7c-0.553,0-1,0.447-1,0.999c0,0.553,0.447,1,1,1h18
			c0.552,0,1-0.447,1-1C26,14.447,25.552,14,25,14z M7,11.999h14c0.553,0,1-0.447,1-1C22,10.447,21.553,10,21,10H7
			c-0.553,0-1,0.447-1,0.999C6,11.552,6.447,11.999,7,11.999z M7,7.999h18c0.552,0,1-0.447,1-0.999c0-0.553-0.448-1.001-1-1.001H7
			C6.447,5.999,6,6.447,6,7C6,7.552,6.447,7.999,7,7.999z"/>
	</g>
</g>
<g>
</g>
<g>
</g>
<g>
</g>
<g>
</g>
<g>
</g>
<g>
</g>
<g>
</g>
<g>
</g>
<g>
</g>
<g>
</g>
<g>
</g>
<g>
</g>
<g>
</g>
<g>
</g>
<g>
</g>
</svg>
