<?xml version="1.0" encoding="iso-8859-1"?>
<!-- Generator: Adobe Illustrator 16.0.0, SVG Export Plug-In . SVG Version: 6.00 Build 0)  -->
<!DOCTYPE svg PUBLIC "-//W3C//DTD SVG 1.1//EN" "http://www.w3.org/Graphics/SVG/1.1/DTD/svg11.dtd">
<svg version="1.1" id="Layer_1" xmlns="http://www.w3.org/2000/svg" xmlns:xlink="http://www.w3.org/1999/xlink" x="0px" y="0px"
	 width="32px" height="21.999px" viewBox="0 0 32 21.999" style="enable-background:new 0 0 32 21.999;" xml:space="preserve">
<g id="Envelope_9_">
	<g>
		<path style="fill:#CCCCCC;" d="M30,0H2C0.896,0,0,0.896,0,2v17.999c0,1.105,0.896,2,2,2h28c1.104,0,2-0.895,2-2V2
			C32,0.896,31.104,0,30,0z"/>
	</g>
</g>
<g id="Container_16_">
	<g>
		<path style="fill-rule:evenodd;clip-rule:evenodd;fill:#FFFFFF;" d="M29.331,2.067C29.226,2.03,29.117,2,29,2H3
			C2.883,2,2.774,2.03,2.669,2.067L16,13.643L29.331,2.067z M16.708,15.767c-0.177,0.147-0.39,0.208-0.604,0.222
			c-0.035,0.005-0.069,0.009-0.104,0.011c-0.036-0.001-0.069-0.006-0.105-0.011c-0.214-0.013-0.427-0.074-0.604-0.222L2,4.225V19
			c0,0.552,0.448,0.999,1,0.999h26c0.552,0,1-0.447,1-0.999V4.225L16.708,15.767z"/>
	</g>
</g>
<g>
</g>
<g>
</g>
<g>
</g>
<g>
</g>
<g>
</g>
<g>
</g>
<g>
</g>
<g>
</g>
<g>
</g>
<g>
</g>
<g>
</g>
<g>
</g>
<g>
</g>
<g>
</g>
<g>
</g>
</svg>
