<?xml version="1.0" encoding="iso-8859-1"?>
<!-- Generator: Adobe Illustrator 16.0.0, SVG Export Plug-In . SVG Version: 6.00 Build 0)  -->
<!DOCTYPE svg PUBLIC "-//W3C//DTD SVG 1.1//EN" "http://www.w3.org/Graphics/SVG/1.1/DTD/svg11.dtd">
<svg version="1.1" id="Layer_1" xmlns="http://www.w3.org/2000/svg" xmlns:xlink="http://www.w3.org/1999/xlink" x="0px" y="0px"
	 width="31.991px" height="28px" viewBox="0 0 31.991 28" style="enable-background:new 0 0 31.991 28;" xml:space="preserve">
<g id="Send">
	<g>
		<path style="fill-rule:evenodd;clip-rule:evenodd;fill:#CCCCCC;" d="M28.458,0.47C27.214,1,13.06,6.783,1.498,11.482
			C0.56,11.864,0,12.655,0,13.485c0,0.829,0.709,1.384,1.498,1.501c0.629,0.094,7.54,1.001,7.54,1.001L11,26l5.971-5.007
			c0,0,5.181,5.197,5.496,5.505C23.017,27.037,23.902,28,24.464,28c0.827,0,1.594-0.991,1.997-2.503
			c0.361-1.354,2.589-11.122,5.492-24.026C32.255,0.128,30.736-0.5,28.458,0.47z M13,17.001L12.5,24l-2-9l14-9L13,17.001z"/>
	</g>
</g>
<g id="Send_1_">
	<g>
		<polygon style="fill:#999999;" points="13,17.001 11,26.001 17,21.001 		"/>
	</g>
</g>
<g>
</g>
<g>
</g>
<g>
</g>
<g>
</g>
<g>
</g>
<g>
</g>
<g>
</g>
<g>
</g>
<g>
</g>
<g>
</g>
<g>
</g>
<g>
</g>
<g>
</g>
<g>
</g>
<g>
</g>
</svg>
